<svg id="图层_1" data-name="图层 1" xmlns="http://www.w3.org/2000/svg" viewBox="0 0 33.9 33.8"><defs><style>.cls-1{fill:none;stroke:#0072c6;stroke-miterlimit:10;stroke-width:1.4px;}.cls-2{fill:#0072c6;}</style></defs><title>fit_view</title><path class="cls-1" d="M27.8,34.9" transform="translate(-7 -7.1)"/><path class="cls-2" d="M18.5,8.5a9.9,9.9,0,0,1,10,10,9.9,9.9,0,0,1-10,10,9.9,9.9,0,0,1-10-10,9.9,9.9,0,0,1,10-10m0-1.4a11.2,11.2,0,0,0-8.1,3.4A11.8,11.8,0,0,0,7,18.6a11.2,11.2,0,0,0,3.4,8.1,11.61,11.61,0,0,0,8.1,3.4,11.2,11.2,0,0,0,8.1-3.4,11.41,11.41,0,0,0,0-16.2,11.2,11.2,0,0,0-8.1-3.4Z" transform="translate(-7 -7.1)"/><path class="cls-2" d="M27.8,25.9,39,37l-2,2L25.9,27.8l1.9-1.9m0-2-3.9,3.9L37,40.9,40.9,37,27.8,23.9Z" transform="translate(-7 -7.1)"/><path class="cls-2" d="M21.6,14.1a1.22,1.22,0,0,1,1.2,1.2v6.3a1.22,1.22,0,0,1-1.2,1.2H15.3a1.22,1.22,0,0,1-1.2-1.2V15.3a1.22,1.22,0,0,1,1.2-1.2h6.3m0-1.4H15.3a2.58,2.58,0,0,0-2.6,2.6v6.3a2.58,2.58,0,0,0,2.6,2.6h6.3a2.58,2.58,0,0,0,2.6-2.6V15.3a2.52,2.52,0,0,0-2.6-2.6Z" transform="translate(-7 -7.1)"/></svg>