<?xml version="1.0" standalone="no"?><!DOCTYPE svg PUBLIC "-//W3C//DTD SVG 1.1//EN" "http://www.w3.org/Graphics/SVG/1.1/DTD/svg11.dtd"><svg t="1758003719919" class="icon" viewBox="0 0 1024 1024" version="1.1" xmlns="http://www.w3.org/2000/svg" p-id="7224" xmlns:xlink="http://www.w3.org/1999/xlink" width="256" height="256"><path d="M784.64 102.4c14.848 0 26.88 12.032 26.88 26.88V219.136h86.016a24.064 24.064 0 0 1 0 48.128h-86.016v121.1904l-53.76 45.6192V267.264h-220.16v203.5712c-33.9968 13.1072-64.8704 29.5936-95.5904 49.152-9.6256 6.144-19.0976 10.9056-28.3136 17.6128H266.24v218.112h86.3744l30.6688 29.9008-30.72 22.3232H266.24v86.784a26.88 26.88 0 0 1-53.76 0V807.936H128.512a26.112 26.112 0 0 1 0-52.224h83.968V537.6H128.8704a26.4704 26.4704 0 0 1 0-52.8896H212.48V267.264H126.464a24.064 24.064 0 0 1 0-48.128h86.016V129.28a26.88 26.88 0 1 1 53.76 0V219.136h218.4704V128.8704a26.4704 26.4704 0 0 1 52.8896 0V219.136h220.16V129.28c0-14.848 12.032-26.88 26.88-26.88zM484.7104 484.7104V266.24H266.24v218.4704h218.4704z m319.1808 83.456a303.2064 303.2064 0 0 1 95.5904 111.616c-49.2544 98.304-149.4016 165.5808-264.96 165.5808a291.584 291.584 0 0 1-92.7232-15.0528l40.2944-40.3456a242.8416 242.8416 0 0 0 183.04-32.4096 252.0576 252.0576 0 0 0 77.312-77.824 252.1088 252.1088 0 0 0-74.2912-75.776l35.7376-35.7376z m-169.3696 207.872c-11.776 0-23.1936-1.536-34.048-4.4544l162.0992-162.048a132.5056 132.5056 0 0 1-128.0512 166.5024zM838.5536 414.72c13.2096-6.4512 23.6032-5.12 31.232 4.0448 8.9088 10.7008 7.7824 23.8592-3.4304 39.424l-456.4992 453.376c-12.544 10.5472-23.9616 10.5472-34.304 0-8.2432-8.4992-10.24-17.7664-6.0416-27.8016L463.36 790.016a303.2064 303.2064 0 0 1-93.7984-110.2336c49.2544-98.304 149.4016-165.632 265.0112-165.632 30.72 0 61.184 4.8128 90.368 14.336l113.664-113.664z m-253.7472 162.5088a49.664 49.664 0 0 0-7.5776 98.816l56.6784-56.6784a49.664 49.664 0 0 0-49.1008-42.1376zM426.496 679.7824c18.7904 29.696 43.52 55.0912 72.4992 74.5472l30.3104-30.3104a132.1984 132.1984 0 0 1-19.3024-125.8496l-6.144 3.7888a252.0064 252.0064 0 0 0-77.312 77.824z" fill="#13227a" p-id="7225"></path></svg>