<?xml version="1.0" encoding="utf-8"?>
<!-- Generator: Adobe Illustrator 22.0.0, SVG Export Plug-In . SVG Version: 6.00 Build 0)  -->
<svg version="1.0" id="图层_1" xmlns="http://www.w3.org/2000/svg" xmlns:xlink="http://www.w3.org/1999/xlink" x="0px" y="0px"
	 viewBox="0 0 48 48" enable-background="new 0 0 48 48" xml:space="preserve">
<title>英特新增图标1</title>
<path id="XMLID_10_" fill="none" stroke="#0878B0" stroke-width="0.65" stroke-miterlimit="10" d="M40.4,40.4"/>
<path fill="#0072C6" d="M40,7H8C7.4,7,7,7.4,7,8v33h34V8C41,7.4,40.6,7,40,7z M11.8,38.3c-1,0-1.8-0.8-1.8-1.8c0-1,0.8-1.8,1.8-1.8
	s1.8,0.8,1.8,1.8C13.6,37.5,12.8,38.3,11.8,38.3z M18,38.3c-1,0-1.8-0.8-1.8-1.8c0-1,0.8-1.8,1.8-1.8s1.8,0.8,1.8,1.8
	C19.7,37.5,18.9,38.3,18,38.3z M24,38.3c-1,0-1.8-0.8-1.8-1.8c0-1,0.8-1.8,1.8-1.8s1.8,0.8,1.8,1.8C25.7,37.5,24.9,38.3,24,38.3z
	 M30,38.3c-1,0-1.8-0.8-1.8-1.8c0-1,0.8-1.8,1.8-1.8s1.8,0.8,1.8,1.8C31.8,37.5,31,38.3,30,38.3z M36.2,38.3c-1,0-1.8-0.8-1.8-1.8
	c0-1,0.8-1.8,1.8-1.8s1.8,0.8,1.8,1.8C37.9,37.5,37.1,38.3,36.2,38.3z M37.9,29.4H10.1V8.3h27.9V29.4z"/>
<rect x="12.6" y="7.9" fill="none" stroke="#0072C6" stroke-width="1.4" stroke-miterlimit="10" width="23" height="19.1"/>
<rect x="30" y="13" fill="#0072C6" width="3.1" height="9.1"/>
</svg>
