<?xml version="1.0" encoding="utf-8"?>
<!-- Generator: Adobe Illustrator 22.0.0, SVG Export Plug-In . SVG Version: 6.00 Build 0)  -->
<svg version="1.0" id="图层_1" xmlns="http://www.w3.org/2000/svg" xmlns:xlink="http://www.w3.org/1999/xlink" x="0px" y="0px"
	 viewBox="0 0 48 48" enable-background="new 0 0 48 48" xml:space="preserve">
<polygon fill="#D9F2FF" points="13.4,13 17.2,17 28.3,17 24.6,12.7 "/>
<rect x="17.8" y="17.5" fill="#D9F2FF" width="11" height="11.3"/>
<polygon fill="#D9F2FF" points="13,13.7 13,24.4 17.2,28 17.2,17.7 "/>
<title>英特新增图标1</title>
<g>
	<path fill="#0072C6" d="M39.6,17.9v21.7H18.3c0,0,0,0,0,0c0,0,0,0,0,0V17.9H39.6 M39.6,16.5H17.2c-0.2,0-0.3,0.1-0.3,0.3v22.8
		c0,1.2,0.6,1.4,1.4,1.4h22.4c0.2,0,0.3-0.1,0.3-0.3V17.6C41,16.8,40.4,16.5,39.6,16.5L39.6,16.5z"/>
</g>
<g>
	<path fill="#0072C6" d="M8.6,9.7l7.8,8l0.3,0.3v20.3L13,34.9l-0.3-0.3l-3.8-3.5l-0.1-0.1L8.7,31c0,0-0.1-0.1-0.1-0.1V9.7 M7.9,7.1
		c-0.4,0-0.7,0.3-0.7,0.7v23.7c0.1,0.1,0.4,0.5,0.7,0.7l3.8,3.5L12,36l5.4,5c0.4,0,0.7-0.3,0.7-0.7V17.5c0-0.4-0.3-0.7-0.7-0.7
		L7.9,7.1L7.9,7.1z"/>
</g>
<g>
	<path fill="#0072C6" d="M30.7,8.4c0.1,0.1,0.1,0.1,0.2,0.2l0,0.1l0,0.1l7.7,7.9H17.3c-0.1-0.1-0.2-0.2-0.3-0.3L9.3,8.5L30.7,8.4
		 M31.2,7L7.9,7.1c-0.4,0-0.7,0.8-0.7,1.2l8.8,9c0.5,0.5,0.7,0.7,0.7,0.7h23.6c0.4,0,0.9-0.2,0.5-1.1l-8.9-9.1
		C31.6,7.3,31.2,7,31.2,7L31.2,7z"/>
</g>
<polyline fill="none" stroke="#0072C6" stroke-width="1.4" stroke-miterlimit="10" points="12.7,35.5 12.7,12.7 35.8,12.7 "/>
<polyline fill="none" stroke="#0072C6" stroke-width="1.4" stroke-miterlimit="10" points="20.2,7.7 28.9,17.2 28.9,40.4 "/>
<polyline fill="none" stroke="#0072C6" stroke-width="1.4" stroke-miterlimit="10" points="40.4,28.8 17.4,28.8 7.6,19.5 "/>
<g>
	<polygon fill="#299DE5" points="24.3,24.1 27.3,31.8 28.9,28.7 32,27.1 	"/>
</g>
<line fill="none" stroke="#299DE5" stroke-width="1.4" stroke-miterlimit="10" x1="26.9" y1="26.8" x2="33.6" y2="33.5"/>
</svg>
