<?xml version="1.0" standalone="no"?><!DOCTYPE svg PUBLIC "-//W3C//DTD SVG 1.1//EN" "http://www.w3.org/Graphics/SVG/1.1/DTD/svg11.dtd"><svg t="1755939759351" class="icon" viewBox="0 0 1024 1024" version="1.1" xmlns="http://www.w3.org/2000/svg" p-id="11692" xmlns:xlink="http://www.w3.org/1999/xlink" width="256" height="256"><path d="M492.784941 879.585882C288.406588 874.706824 124.235294 707.463529 124.235294 501.970824c0-208.624941 169.110588-377.735529 377.73553-377.73553 208.594824 0 377.705412 169.110588 377.705411 377.73553 0 208.594824-169.110588 377.705412-377.705411 377.705411z m-88.606117-215.973647l1.084235 4.939294c5.842824 25.961412 12.890353 49.543529 20.841412 70.113883l4.999529 12.257882c20.419765 47.555765 45.778824 76.047059 70.866824 76.047059l3.523764-0.180706c27.075765-2.861176 54.151529-38.339765 74.752-94.569412l4.638118-13.402353c2.258824-6.866824 4.457412-14.004706 6.505412-21.413647l4.005647-15.119059c1.505882-6.083765 2.951529-12.288 4.336941-18.642823a903.589647 903.589647 0 0 1-97.761882 5.210353c-33.792 0-66.56-1.807059-97.792-5.240471z m-212.178824-63.548235l0.481882 1.505882a325.812706 325.812706 0 0 0 211.425883 210.341647c-24.666353-39.243294-43.670588-93.364706-55.416471-156.521411l-6.927059-1.295059c-60.144941-11.806118-111.736471-30.328471-149.564235-54.061177z m619.911529-0.030118l-4.276705 2.650353c-38.851765 23.341176-91.346824 41.411765-152.214589 52.736-11.745882 63.126588-30.72 117.248-55.386353 156.491294a325.812706 325.812706 0 0 0 211.877647-211.877647z m-309.940705-212.269176l-9.999059 0.060235c-29.906824 0.361412-58.729412 2.288941-85.985883 5.51153l-11.203764 1.445647-1.445647 11.203764a810.767059 810.767059 0 0 0-5.330824 76.047059l-0.240941 19.937883 0.060235 9.999058c0.361412 29.876706 2.288941 58.699294 5.51153 85.955765l1.445647 11.233882 2.198588 0.301177c4.487529 0.602353 9.005176 1.144471 13.552941 1.65647l13.854118 1.41553 18.823529 1.566118a834.379294 834.379294 0 0 0 117.488941 0l18.82353-1.566118c9.336471-0.873412 18.462118-1.897412 27.407059-3.072l2.198588-0.331294 0.331294-2.168471c0.602353-4.517647 1.144471-9.035294 1.65647-13.583059l1.41553-13.854117 1.566118-18.82353a834.379294 834.379294 0 0 0 0-117.458823l-1.566118-18.853647c-0.873412-9.306353-1.897412-18.462118-3.072-27.407059l-0.301177-2.198588-11.233882-1.445647a810.767059 810.767059 0 0 0-76.047059-5.330824l-19.907764-0.240941z m-161.67153 16.444235l-4.909176 1.054118c-25.961412 5.842824-49.543529 12.890353-70.113883 20.841412l-12.288 4.999529c-47.525647 20.419765-76.047059 45.778824-76.047059 70.866824 0 28.220235 36.080941 56.771765 94.750118 78.275764l13.402353 4.638118c6.866824 2.258824 14.034824 4.457412 21.413647 6.505412l15.119059 4.005647c6.083765 1.505882 12.288 2.951529 18.672941 4.336941a903.589647 903.589647 0 0 1-5.24047-97.761882c0-33.761882 1.807059-66.56 5.24047-97.761883z m323.312941 0l0.722824 6.866824c2.981647 29.153882 4.517647 59.602824 4.517647 90.895059 0 33.731765-1.807059 66.529882-5.240471 97.761882l5.601883-1.204706 13.071058-3.132235 15.119059-4.005647c7.408941-2.048 14.546824-4.216471 21.413647-6.505412l13.402353-4.638118c58.669176-21.504 94.750118-50.055529 94.750118-78.305882 0-25.088-28.491294-50.416941-76.047059-70.836706l-12.257882-4.999529a507.301647 507.301647 0 0 0-75.053177-21.925647z m-63.548235-212.208941l0.963765 1.566118c23.250824 37.647059 41.411765 88.666353 53.067294 147.998117l1.295059 6.927059c63.126588 11.745882 117.278118 30.750118 156.521411 55.386353a325.812706 325.812706 0 0 0-211.847529-211.877647z m-196.216471 0l-1.505882 0.481882a325.812706 325.812706 0 0 0-210.341647 211.365647c39.273412-24.606118 93.364706-43.610353 156.491294-55.356235 11.745882-63.096471 30.72-117.217882 55.356235-156.461176z m98.123295-15.058824l-3.764706 0.210824c-23.853176 2.710588-47.706353 30.659765-67.102118 75.836235l-4.999529 12.288c-8.432941 21.835294-15.872 47.104-21.925647 74.992941a903.981176 903.981176 0 0 1 97.792-5.210352c33.731765 0 66.529882 1.807059 97.761882 5.24047l-1.204706-5.571765-3.132235-13.101176-4.005647-15.119059c-2.048-7.378824-4.216471-14.546824-6.505412-21.413647l-4.638118-13.402353c-21.504-58.669176-50.055529-94.750118-78.305882-94.750118z" fill="#13227a" p-id="11693"></path></svg>