<?xml version="1.0" standalone="no"?><!DOCTYPE svg PUBLIC "-//W3C//DTD SVG 1.1//EN" "http://www.w3.org/Graphics/SVG/1.1/DTD/svg11.dtd"><svg t="1758005518492" class="icon" viewBox="0 0 1024 1024" version="1.1" xmlns="http://www.w3.org/2000/svg" p-id="9360" xmlns:xlink="http://www.w3.org/1999/xlink" width="256" height="256"><path d="M911.36 803.84l-128-163.84c-5.12-5.12-15.36-5.12-15.36 0l-30.72 61.44-184.32-81.92V378.88h71.68c10.24 0 15.36-10.24 10.24-15.36l-107.52-174.08c-5.12-5.12-15.36-5.12-15.36 0L394.24 363.52c-5.12 5.12 0 15.36 10.24 15.36h71.68V614.4l-189.44 92.16-30.72-61.44c-5.12-5.12-15.36-5.12-15.36 0l-122.88 168.96c-5.12 5.12 0 15.36 5.12 15.36l220.16 15.36c10.24 0 15.36-10.24 10.24-15.36l-25.6-51.2 184.32-87.04 194.56 87.04-25.6 56.32c-5.12 5.12 0 15.36 10.24 15.36l220.16-20.48c0-10.24 5.12-20.48 0-25.6z" fill="#13227a" p-id="9361"></path></svg>