<?xml version="1.0" standalone="no"?><!DOCTYPE svg PUBLIC "-//W3C//DTD SVG 1.1//EN" "http://www.w3.org/Graphics/SVG/1.1/DTD/svg11.dtd"><svg t="1758104067739" class="icon" viewBox="0 0 1024 1024" version="1.1" xmlns="http://www.w3.org/2000/svg" p-id="5495" xmlns:xlink="http://www.w3.org/1999/xlink" width="256" height="256"><path d="M81.92 921.6h901.12v20.48H61.44V81.92h20.48v839.68z" fill="#13227a" p-id="5496"></path><path d="M605.7984 811.60192l303.104-354.38592-15.5648-13.312-290.54976 339.68128L296.61184 550.912 55.66464 716.1856l11.59168 16.896 228.7616-156.93824z" fill="#13227a" p-id="5497"></path><path d="M296.01792 289.44384L605.7984 524.88192l303.104-354.38592-15.5648-13.312-290.54976 339.68128L296.61184 264.192 55.66464 429.4656l11.59168 16.896z" fill="#13227a" p-id="5498"></path><path d="M40.96 675.84h81.92v81.92H40.96zM573.44 757.76h81.92v81.92h-81.92zM860.16 389.12h81.92v81.92h-81.92zM266.24 512h81.92v81.92h-81.92z" fill="#13227a" p-id="5499"></path><path d="M40.96 389.12h81.92v81.92H40.96zM552.96 450.56h81.92v81.92h-81.92zM860.16 81.92h81.92v81.92h-81.92zM266.24 225.28h81.92v81.92h-81.92z" fill="#13227a" p-id="5500"></path></svg>