<?xml version="1.0" standalone="no"?><!DOCTYPE svg PUBLIC "-//W3C//DTD SVG 1.1//EN" "http://www.w3.org/Graphics/SVG/1.1/DTD/svg11.dtd"><svg t="1757669963377" class="icon" viewBox="0 0 1024 1024" version="1.1" xmlns="http://www.w3.org/2000/svg" p-id="11200" xmlns:xlink="http://www.w3.org/1999/xlink" width="256" height="256"><path d="M1001.458 356.166l-89.274-43.869-90.59-46.94L933.68 45.281a32.682 32.682 0 0 0-19.522-40.652 34.218 34.218 0 0 0-45.039 9.724L757.034 234.21l-84.521-39.994-115.814-56.956-3.437-1.463-3.582-1.243-3.656-0.73-3.73-0.512h-7.091l-3.656 0.584-3.51 0.951-3.363 1.243-3.29 1.608-3.07 1.975-2.925 2.193-2.706 2.413-2.413 2.778-2.266 3.071-1.828 3.07a723.84 723.84 0 0 1-103.75 148.059 850.768 850.768 0 0 1-89.274 85.325 993.342 993.342 0 0 1-288.658 164.07 41.09 41.09 0 0 0-6.215 71.507l651.31 389.777a78.745 78.745 0 0 0 63.17 1.243 994.366 994.366 0 0 0 213.716-293.703 775.02 775.02 0 0 0 77.283-328.287 36.558 36.558 0 0 0-6.727-21.277 37.727 37.727 0 0 0-15.427-13.965z m-115.156 333.26A943.185 943.185 0 0 1 701.1 950.957l-148.35-88.762 93.221-89.273a37.654 37.654 0 0 0 0.585-54.106 39.555 39.555 0 0 0-55.202-0.584l-107.333 102.8-174.526-104.409 105.067-72.238a37.654 37.654 0 0 0 9.578-53.3 39.555 39.555 0 0 0-54.398-9.36l-133.216 91.468-135.628-81.45a1082.47 1082.47 0 0 0 253.563-155.15 968.995 968.995 0 0 0 77.795-71.8l478.392 267.601q-11.04 29.246-24.274 57.103zM470.13 306.447a854.423 854.423 0 0 0 71.507-103.02l415.732 204.723a707.754 707.754 0 0 1-24.054 157.49L470.13 306.448z" p-id="11201" fill="#13227a"></path></svg>