<?xml version="1.0" standalone="no"?><!DOCTYPE svg PUBLIC "-//W3C//DTD SVG 1.1//EN" "http://www.w3.org/Graphics/SVG/1.1/DTD/svg11.dtd"><svg t="1756717344825" class="icon" viewBox="0 0 1024 1024" version="1.1" xmlns="http://www.w3.org/2000/svg" p-id="6936" xmlns:xlink="http://www.w3.org/1999/xlink" width="256" height="256"><path d="M302 902h-90c-49.5 0-90-40.5-90-90v-90c0-16.5 13.5-30 30-30s30 13.5 30 30v90c0 16.5 13.5 30 30 30h90c16.5 0 30 13.5 30 30s-13.5 30-30 30z m510 0h-90c-16.5 0-30-13.5-30-30s13.5-30 30-30h90c16.5 0 30-13.5 30-30v-90c0-16.5 13.5-30 30-30s30 13.5 30 30v90c0 49.5-40.5 90-90 90z m60-570c-16.5 0-30-13.5-30-30v-90c0-16.5-13.5-30-30-30h-90c-16.5 0-30-13.5-30-30s13.5-30 30-30h90c49.5 0 90 40.5 90 90v90c0 16.5-13.5 30-30 30z m-720 0c-16.5 0-30-13.5-30-30v-90c0-49.5 40.5-90 90-90h90c16.5 0 30 13.5 30 30s-13.5 30-30 30h-90c-16.5 0-30 13.5-30 30v90c0 16.5-13.5 30-30 30z m510 420H362c-49.5 0-90-40.5-90-90V362c0-49.5 40.5-90 90-90h300c49.5 0 90 40.5 90 90v300c0 49.5-40.5 90-90 90zM362 332c-16.5 0-30 13.5-30 30v300c0 16.5 13.5 30 30 30h300c16.5 0 30-13.5 30-30V362c0-16.5-13.5-30-30-30H362z" p-id="6937" fill="#13227a"></path></svg>