<?xml version="1.0" standalone="no"?><!DOCTYPE svg PUBLIC "-//W3C//DTD SVG 1.1//EN" "http://www.w3.org/Graphics/SVG/1.1/DTD/svg11.dtd"><svg t="1759130440175" class="icon" viewBox="0 0 1024 1024" version="1.1" xmlns="http://www.w3.org/2000/svg" p-id="4791" xmlns:xlink="http://www.w3.org/1999/xlink" width="256" height="256"><path d="M910.716429 863.211297a219.242487 219.242487 0 0 0 43.067774-130.419202c0-121.716057-98.998286-220.714342-220.714342-220.714343S512.291525 611.140032 512.291525 732.856088a220.970317 220.970317 0 0 0 220.714342 220.714343c48.827209 0 93.814794-16.126418 130.419203-43.067774l103.733821 103.733821a33.340728 33.340728 0 1 0 47.227366-47.291359l-103.669828-103.733822z m-177.710562 36.028465a166.575655 166.575655 0 0 1-166.383673-166.383674c0-91.766995 74.616678-166.383674 166.383673-166.383673 91.766995 0 166.383674 74.680672 166.383674 166.383673 0 91.766995-74.616678 166.383674-166.383674 166.383674zM18.515977 407.895975c5.759435 1.279874 11.51887 0.639937 17.918241-1.919811 6.399372-3.199686 11.51887-8.959121 14.718556-18.558179 8.959121-38.396232 18.558179-76.152528 29.437112-112.628949h2.559748c1.279874 0.639937 1.919812 0.639937 3.199687 0.639938l170.223296-1.279875c6.399372 19.198116 11.51887 38.396232 16.638368 58.234286 4.47956 19.198116 8.319184 39.03617 10.878932 59.51416 3.839623 7.039309 8.319184 12.158807 14.078619 15.358493 5.119498 2.559749 10.878933 3.839623 16.638367 2.559749 5.759435-1.279874 10.238995-3.839623 14.078619-8.959121 3.839623-5.119498 5.759435-12.158807 6.399372-20.477991-1.919812-17.918242-5.119498-36.476421-9.599058-53.754725-3.839623-17.918242-8.319184-35.836484-14.078619-53.114788h13.438681c8.319184-1.919812 14.078619-5.119498 18.558179-10.238995 4.47956-4.47956 6.399372-9.599058 7.03931-15.358493 0-5.119498-1.919812-10.238995-5.759435-15.358493a33.724691 33.724691 0 0 0-17.918242-11.51887l-33.916672 0.639937c-3.839623-10.238995-7.679246-19.838053-12.158807-30.077048-3.839623-9.599058-8.319184-19.198116-12.798744-29.437112-12.798744-27.5173-26.237425-55.0346-41.595918-81.911962-14.718556-26.877363-33.276735-51.194976-55.674537-72.952842h-0.639937c0-0.639937 0-0.639937-0.639938-0.639937a22.397802 22.397802 0 0 0-10.878932-5.759435 24.061639 24.061639 0 0 0-13.438682 0.639937c-9.599058 2.559749-15.358493 7.679246-17.918241 15.358493-30.077049 56.954411-55.0346 114.54876-74.872653 174.06292-19.838053 58.874223-37.116358 119.668258-51.194977 181.742167a31.99686 31.99686 0 0 0 3.199686 23.677676c3.199686 5.759435 8.319184 9.599058 14.078619 11.51887z m106.229576-261.734317c10.238995-24.957551 21.117928-49.915102 33.276735-74.232716 8.959121 11.51887 16.638367 23.677677 23.677676 36.476421 7.039309 12.798744 14.078619 25.597488 20.477991 37.756295 6.399372 12.798744 12.158807 24.957551 17.918242 37.116358 5.759435 12.798744 11.51887 24.957551 16.638367 38.396232l-139.506311 1.279875c8.319184-26.237425 17.918242-51.194976 27.5173-76.792465zM416.300944 92.406933c3.839623 0 7.679246-0.639937 11.51887-1.919812v277.09281c-1.279874 4.47956-2.559749 8.319184-2.559749 10.878933 0 6.399372 2.559749 12.158807 7.039309 17.278304 4.47956 5.119498 11.51887 8.319184 21.117928 9.599058 5.759435 0 11.51887 0.639937 17.278305 0.639938h17.918241c15.99843 0 32.636798-1.279874 49.275165-2.559749 15.99843-1.279874 32.636798-4.47956 47.995291-10.238996 12.798744-3.199686 24.317614-8.959121 34.556609-16.638367 10.238995-7.679246 18.558179-15.99843 26.237425-26.237425a127.987441 127.987441 0 0 0 17.918242-31.356923 97.52643 97.52643 0 0 0-8.959121-87.03146c-10.238995-16.638367-26.237425-30.077049-47.99529-40.955982 15.358493-10.878933 26.877363-24.317614 35.196546-39.036169 8.319184-15.358493 12.798744-31.356923 12.798744-47.355354 0-11.51887-3.199686-23.677677-8.959121-35.836483-5.759435-12.158807-14.078619-23.037739-24.957551-33.276735-10.878933-10.238995-24.317614-18.558179-39.676107-24.957551-15.99843-6.399372-33.276735-9.599058-52.474851-9.599058-10.878933 0-23.677677 1.919812-39.676106 5.119498-15.358493 3.839623-30.716986 8.319184-44.795605 14.718555-14.718556 6.399372-27.5173 13.438681-37.756295 21.117928-10.238995 8.319184-15.358493 17.278305-15.358493 26.877363 0 6.399372 2.559749 11.51887 7.039309 16.638367 4.47956 4.47956 10.238995 7.039309 17.278305 7.03931z m64.633658-29.437112c14.078619-5.759435 29.437111-8.319184 45.435541-8.319184 8.319184 0 17.278305 0.639937 26.877363 3.199686 8.959121 1.919812 17.278305 5.119498 24.317614 9.599059 7.679246 4.47956 13.438681 10.238995 17.918242 17.278304 5.119498 6.399372 7.039309 14.718556 7.039309 24.317614s-2.559749 18.558179-8.959121 25.597488c-6.399372 7.039309-13.438681 13.438681-22.397802 18.558179-8.319184 4.47956-17.278305 8.319184-26.877363 11.51887-9.599058 2.559749-17.278305 4.47956-23.037739 4.47956-7.039309 0-13.438681-0.639937-20.477991-0.639937-6.399372-0.639937-13.438681-0.639937-19.838053-0.639937V62.969821z m0 162.54405c7.039309 0 14.718556-0.639937 21.757865-1.279874l22.397802-1.919812c12.158807 1.279874 24.317614 3.199686 36.476421 6.399372 11.51887 3.199686 22.397802 8.319184 31.99686 15.358493 8.319184 5.119498 14.078619 11.51887 18.558179 19.198117 3.839623 7.679246 5.759435 15.99843 5.759435 24.317613 0 15.99843-5.759435 28.797174-16.638367 37.756296-10.878933 8.959121-23.677677 15.358493-38.396233 19.838053-14.718556 3.839623-30.077049 6.399372-45.435541 7.039309-15.358493 1.279874-27.5173 1.279874-36.476421 1.279875v-127.987442zM771.466093 361.820496c14.078619 16.638367 30.077049 29.437111 49.275165 39.03617 19.198116 8.959121 40.316044 14.078619 63.353784 14.078618 15.358493 0 29.437111-2.559749 42.235855-7.679246 12.798744-5.119498 24.317614-11.51887 35.196547-19.198116 10.238995-7.679246 19.838053-17.278305 28.797174-27.5173 8.959121-10.878933 16.638367-21.117928 24.317614-32.636798 1.919812-5.759435 3.199686-10.238995 3.199686-14.078618 0-7.039309-2.559749-13.438681-7.039309-17.918242a25.917457 25.917457 0 0 0-17.278305-7.039309c-7.679246 0-14.718556 2.559749-21.117928 8.319184-5.119498 7.679246-10.238995 15.358493-15.99843 23.037739-6.399372 7.679246-12.798744 14.718556-20.477991 21.117928-7.039309 6.399372-14.718556 11.51887-23.677676 15.358493-8.319184 3.839623-17.918242 5.759435-27.5173 5.759435-16.638367 0-31.356923-3.199686-44.155667-10.238996-12.798744-7.039309-23.677677-16.638367-32.636798-28.157237-8.959121-12.158807-15.358493-25.597488-19.838053-40.316044-5.119498-14.718556-7.039309-29.437111-7.039309-44.795604 0-21.757865 3.199686-41.595918 9.599058-58.874223 6.399372-16.638367 15.358493-31.99686 26.877362-45.435542 11.51887-12.798744 24.317614-23.677677 39.676107-33.276735 14.718556-8.959121 30.716986-16.638367 46.715416-23.037739 10.238995-3.839623 17.918242-6.399372 24.317614-8.959121 6.399372-2.559749 12.158807-3.199686 17.278305-3.199686 5.759435 0 10.878933 1.919812 15.99843 7.039309 4.47956 4.47956 9.599058 12.798744 15.99843 24.317614 6.399372 7.039309 14.078619 10.238995 22.397802 10.238996 6.399372 0 12.798744-2.559749 17.278305-7.03931 4.47956-5.119498 7.039309-10.878933 7.039309-18.558179 0-3.839623-0.639937-7.679246-1.919812-11.518869-10.878933-21.117928-22.397802-35.196546-33.916672-44.155668-12.158807-8.319184-25.597488-12.798744-40.955981-12.798744-9.599058 0-19.838053 1.919812-30.716986 4.479561-10.878933 3.199686-23.037739 7.679246-35.836483 12.798744-19.838053 8.319184-37.116358 17.278305-52.474851 26.237425-14.718556 8.959121-28.797174 19.838053-40.316044 31.356923-11.51887 12.158807-21.757865 25.597488-30.716986 40.955982-8.319184 15.358493-15.99843 33.276735-22.397802 53.754725-4.47956 15.358493-7.039309 31.99686-7.03931 50.555039 0 24.957551 3.839623 48.635228 11.51887 71.03303 7.039309 21.757865 17.918242 40.955981 31.99686 56.954411zM38.098055 777.139743c-20.477991 0-37.756295 17.278305-37.756295 37.756295 0 21.117928 17.278305 38.396232 37.756295 38.396233h437.077112c-11.51887-23.677677-19.198116-49.275165-23.037739-76.152528H38.098055zM0.34176 610.116132c0 21.117928 17.278305 37.756295 37.756295 37.756296H461.096548c8.959121-27.5173 21.117928-52.474851 37.116358-75.512591H38.098055c-20.477991 0-37.756295 16.638367-37.756295 37.756295z" fill="#13227a" p-id="4792"></path></svg>