<?xml version="1.0" standalone="no"?><!DOCTYPE svg PUBLIC "-//W3C//DTD SVG 1.1//EN" "http://www.w3.org/Graphics/SVG/1.1/DTD/svg11.dtd"><svg t="1755940491139" class="icon" viewBox="0 0 1024 1024" version="1.1" xmlns="http://www.w3.org/2000/svg" p-id="24900" xmlns:xlink="http://www.w3.org/1999/xlink" width="256" height="256"><path d="M323.072 154.112h-111.104c-15.36 0-28.16 12.288-28.16 28.16v659.968c0 15.36 12.288 28.16 28.16 28.16h32.256V655.872c0-17.92 7.168-35.328 19.968-48.128l51.2-51.2c12.8-12.8 30.208-19.968 48.128-19.968h297.472c17.92 0 35.328 7.168 48.128 19.968l51.2 51.2c12.8 12.8 19.968 30.208 19.968 48.128v214.528h32.256c15.36 0 28.16-12.288 28.16-28.16v-486.4c0-7.68-3.072-14.336-8.192-19.968L701.952 205.312v166.912c0 19.968-15.872 35.84-35.84 35.84h-306.176c-19.968 0-35.84-15.872-35.84-35.84V154.112z m71.68 0v181.76h233.984V154.112h-233.984z m517.12 201.216v486.4c0 55.296-44.544 99.84-99.84 99.84h-600.064c-55.296 0-99.84-44.544-99.84-99.84V181.76c0-55.296 44.544-99.84 99.84-99.84h426.496c26.624 0 51.712 10.752 70.656 29.184l173.568 173.568c18.944 18.944 29.184 44.032 29.184 70.656z m-252.928 252.416h-294.4l-49.152 49.152v212.992h392.192v-212.992l-48.64-49.152z m-128.512-398.336c0-19.968 15.872-35.84 35.84-35.84s35.84 15.872 35.84 35.84v65.024c0 19.968-15.872 35.84-35.84 35.84s-35.84-15.872-35.84-35.84v-65.024z" fill="#13227a" p-id="24901"></path></svg>