<?xml version="1.0" encoding="utf-8"?>
<!-- Generator: Adobe Illustrator 22.0.0, SVG Export Plug-In . SVG Version: 6.00 Build 0)  -->
<svg version="1.0" id="图层_1" xmlns="http://www.w3.org/2000/svg" xmlns:xlink="http://www.w3.org/1999/xlink" x="0px" y="0px"
	 viewBox="0 0 48 48" enable-background="new 0 0 48 48" xml:space="preserve">
<title>英特新增图标1</title>
<path fill="none" stroke="#0072C6" stroke-width="1.4" stroke-miterlimit="10" d="M24.2,16.7h14.6c0.8,0,1.4,0.3,1.4,1v22.3
	c0,0.2-0.1,0.3-0.3,0.3H17.5"/>
<path fill="none" stroke="#0072C6" stroke-width="1.4" stroke-miterlimit="10" d="M18.2,26.8v12.9c0,0.4-0.3,0.7-0.7,0.7L12,36
	l-0.3-0.3l-3.8-3.5c-0.4-0.3-0.1-0.5-0.2-0.6V8.6c0-0.4-0.2-0.9,0.2-0.9l7.6,7.3"/>
<path fill="none" stroke="#0072C6" stroke-width="1.4" stroke-linecap="round" stroke-miterlimit="10" d="M7.7,7.8l23.1-0.2
	c0,0,0.4,0.3,0.7,0.7l8.5,9"/>
<polyline fill="none" stroke="#0072C6" stroke-width="1.4" stroke-miterlimit="10" points="12.7,36.5 12.7,12.9 35.8,12.9 "/>
<polyline fill="none" stroke="#0072C6" stroke-width="1.4" stroke-miterlimit="10" points="20.2,7.9 28.9,17.3 28.9,40.4 "/>
<polyline fill="none" stroke="#0072C6" stroke-width="1.4" stroke-miterlimit="10" points="40.4,28.9 17.7,28.9 7.6,19.7 "/>
<g>
	<polygon fill="#299DE5" points="24.3,24.2 27.3,31.9 28.9,28.8 32,27.2 	"/>
</g>
<line fill="none" stroke="#299DE5" stroke-width="1.4" stroke-miterlimit="10" x1="26.9" y1="26.9" x2="33.6" y2="33.6"/>
<line fill="none" stroke="#CD442B" stroke-width="1.4" stroke-miterlimit="10" x1="14.4" y1="19.5" x2="23.9" y2="19.5"/>
<line fill="none" stroke="#CD442B" stroke-width="1.4" stroke-miterlimit="10" x1="19.1" y1="24.2" x2="19.1" y2="14.8"/>
</svg>
