<?xml version="1.0" standalone="no"?><!DOCTYPE svg PUBLIC "-//W3C//DTD SVG 1.1//EN" "http://www.w3.org/Graphics/SVG/1.1/DTD/svg11.dtd"><svg t="1762927686406" class="icon" viewBox="0 0 1024 1024" version="1.1" xmlns="http://www.w3.org/2000/svg" p-id="5582" xmlns:xlink="http://www.w3.org/1999/xlink" width="256" height="256"><path d="M219.232 476.48l151.232-386.208a8 8 0 0 1 14.88 0l260.768 665.984 107.52-274.688a8 8 0 0 1 7.456-5.056h189.92a8 8 0 0 1 8 8v56a8 8 0 0 1-8 8h-146.24L653.536 934.72a8 8 0 0 1-14.88 0L377.888 268.736l-107.52 274.688a8 8 0 0 1-7.456 5.088H72.96a8 8 0 0 1-8-8v-56a8 8 0 0 1 8-8h146.24z" fill="#13227a" p-id="5583"></path></svg>