<?xml version="1.0" standalone="no"?><!DOCTYPE svg PUBLIC "-//W3C//DTD SVG 1.1//EN" "http://www.w3.org/Graphics/SVG/1.1/DTD/svg11.dtd"><svg t="1761039424923" class="icon" viewBox="0 0 1536 1024" version="1.1" xmlns="http://www.w3.org/2000/svg" p-id="6879" xmlns:xlink="http://www.w3.org/1999/xlink" width="384" height="256"><path d="M358.4 194.56h81.92v778.24H358.4z" fill="#13227a" p-id="6880"></path><path d="M307.2 839.68h778.24v81.92H307.2zM1228.8 880.64l-143.36-92.16v184.32zM399.36 51.2L307.2 194.56h184.32zM1157.632 654.336l34.816-60.416h34.816l-53.248 80.896L1228.8 757.76h-34.304l-36.352-61.952-36.352 61.952h-34.304l54.784-82.944-53.248-80.896h34.304zM599.552 153.6l5.12 20.48h1.024l39.936-122.368h32.768l-68.096 187.392c-4.096 10.752-9.728 20.48-17.408 28.672-7.68 8.192-17.92 12.288-30.72 12.288-2.56 0-5.632-0.512-9.216-1.024s-6.656-1.024-8.704-1.536l3.072-23.04c-0.512 0 1.024 0 5.12 0.512s6.656 0.512 7.68 0.512c6.144 0 11.264-2.56 15.36-8.192 4.096-5.632 7.168-11.776 10.24-18.432l7.168-16.896L532.48 51.2h32.768l34.304 102.4z" fill="#13227a" p-id="6881"></path></svg>