<?xml version="1.0" standalone="no"?><!DOCTYPE svg PUBLIC "-//W3C//DTD SVG 1.1//EN" "http://www.w3.org/Graphics/SVG/1.1/DTD/svg11.dtd"><svg t="1755939502380" class="icon" viewBox="0 0 1024 1024" version="1.1" xmlns="http://www.w3.org/2000/svg" p-id="5156" width="256" height="256" xmlns:xlink="http://www.w3.org/1999/xlink"><path d="M805.44 707.12l0.64-0.32-272.72-530.32c-4.08-8-12.32-13.04-21.36-13.04s-17.2 5.04-21.36 13.04L217.6 707.36l0.4 0.24c-14.08 14-22.08 29.84-22.08 47.68 0 79.68 158.96 121.36 316 121.36s316-41.68 316-121.36c0.08-18.08-8.08-34.08-22.48-48.16zM512 239.92l218.8 425.44c-59.6-20.8-139.44-31.52-218.8-31.52-79.36 0-159.2 10.64-218.8 31.52L512 239.92z m0 588.64c-173.44 0-268-48.4-268-73.36s94.56-73.36 268-73.36 268 48.48 268 73.36-94.56 73.36-268 73.36z" fill="#13227a" p-id="5157"></path></svg>