<?xml version="1.0" standalone="no"?><!DOCTYPE svg PUBLIC "-//W3C//DTD SVG 1.1//EN" "http://www.w3.org/Graphics/SVG/1.1/DTD/svg11.dtd"><svg t="1755942282166" class="icon" viewBox="0 0 1024 1024" version="1.1" xmlns="http://www.w3.org/2000/svg" p-id="31746" xmlns:xlink="http://www.w3.org/1999/xlink" width="256" height="256"><path d="M480.768 464.896c-90.112 0-175.104-17.92-239.616-50.176-72.704-36.352-112.64-87.552-112.64-144.384s39.936-108.032 112.64-144.384c64.512-32.256 150.016-50.176 239.616-50.176 90.112 0 175.104 17.92 239.616 50.176 72.704 36.352 112.64 87.552 112.64 144.384s-39.936 108.032-112.64 144.384c-64.512 32.256-149.504 50.176-239.616 50.176z m0-316.928c-165.376 0-280.576 64.512-280.576 122.88 0 57.856 115.2 122.88 280.576 122.88s280.576-64.512 280.576-122.88-115.2-122.88-280.576-122.88z" p-id="31747" fill="#13227a"></path><path d="M128.512 266.24h71.68v491.52h-71.68zM761.344 270.336h71.68v491.52h-71.68z" p-id="31748" fill="#13227a"></path><path d="M480.768 955.392c-90.112 0-175.104-17.92-239.616-50.176-72.704-36.352-112.64-87.552-112.64-144.384s39.936-108.032 112.64-144.384c64.512-32.256 150.016-50.176 239.616-50.176 90.112 0 175.104 17.92 239.616 50.176 72.704 36.352 112.64 87.552 112.64 144.384s-39.936 108.032-112.64 144.384c-64 32.256-149.504 50.176-239.616 50.176z m0-316.928c-165.376 0-280.576 64.512-280.576 122.88s115.2 122.88 280.576 122.88 280.576-64.512 280.576-122.88-115.2-122.88-280.576-122.88z" p-id="31749" fill="#13227a"></path></svg>