<?xml version="1.0" standalone="no"?><!DOCTYPE svg PUBLIC "-//W3C//DTD SVG 1.1//EN" "http://www.w3.org/Graphics/SVG/1.1/DTD/svg11.dtd"><svg t="1755940186060" class="icon" viewBox="0 0 1024 1024" version="1.1" xmlns="http://www.w3.org/2000/svg" p-id="22969" xmlns:xlink="http://www.w3.org/1999/xlink" width="256" height="256"><path d="M499.2 112a25.6 25.6 0 0 1 25.6 0l186.88 107.904a25.6 25.6 0 0 1 12.8 22.144v215.808a25.6 25.6 0 0 1-12.8 22.144L524.8 587.904a25.6 25.6 0 0 1-25.6 0L312.32 480a25.6 25.6 0 0 1-12.8-22.144V242.048a25.6 25.6 0 0 1 12.8-22.144L499.2 112zM350.72 287.936v155.136L486.4 521.408V366.784L350.72 287.936z m24.32-45.12l136.64 79.424 136.96-79.616L512 163.712 375.04 242.816z m298.24 44.8L537.6 366.336v155.008l135.68-78.336v-155.52z" p-id="22970" fill="#13227a"></path><path d="M312.128 436.096a25.6 25.6 0 0 1 25.6 0L524.608 544a25.6 25.6 0 0 1 12.8 22.144v215.808a25.6 25.6 0 0 1-12.8 22.144l-186.88 107.904a25.6 25.6 0 0 1-25.6 0l-186.88-107.904a25.6 25.6 0 0 1-12.8-22.144V566.144a25.6 25.6 0 0 1 12.8-22.144l186.88-107.904z m-148.48 175.872v155.2l135.68 78.336v-154.688l-135.68-78.848z m24.32-45.056l136.64 79.36 136.96-79.552-136.64-78.912-136.96 79.104z m298.24 44.736l-135.68 78.848v155.008l135.68-78.336v-155.52z" p-id="22971" fill="#13227a"></path><path d="M686.272 436.096a25.6 25.6 0 0 1 25.6 0l186.88 107.904a25.6 25.6 0 0 1 12.8 22.144v215.808a25.6 25.6 0 0 1-12.8 22.144l-186.88 107.904a25.6 25.6 0 0 1-25.6 0l-186.88-107.904a25.6 25.6 0 0 1-12.8-22.144V566.144a25.6 25.6 0 0 1 12.8-22.144l186.88-107.904z m-148.48 175.872v155.2l135.68 78.336v-154.688l-135.68-78.848z m24.32-45.056l136.704 79.36 136.96-79.552-136.704-78.912-136.96 79.104z m298.24 44.736l-135.68 78.848v155.008l135.68-78.336v-155.52z" p-id="22972" fill="#13227a"></path></svg>