<?xml version="1.0" standalone="no"?><!DOCTYPE svg PUBLIC "-//W3C//DTD SVG 1.1//EN" "http://www.w3.org/Graphics/SVG/1.1/DTD/svg11.dtd"><svg t="1755942601556" class="icon" viewBox="0 0 1024 1024" version="1.1" xmlns="http://www.w3.org/2000/svg" p-id="34765" xmlns:xlink="http://www.w3.org/1999/xlink" width="256" height="256"><path d="M801.2 1024H222.8c-59.299 0-115.19-23.233-157.378-65.422C23.234 916.391 0 860.499 0 801.2V222.8c0-59.299 23.234-115.19 65.421-157.378C107.609 23.234 163.501 0 222.8 0h578.4c59.299 0 115.19 23.234 157.378 65.421C1000.767 107.609 1024 163.501 1024 222.8v578.4c0 59.299-23.233 115.19-65.422 157.378C916.391 1000.767 860.499 1024 801.2 1024zM222.8 60C133.032 60 60 133.032 60 222.8v578.4C60 890.969 133.032 964 222.8 964h578.4c89.769 0 162.8-73.031 162.8-162.8V222.8C964 133.032 890.969 60 801.2 60H222.8z" fill="#13227a" p-id="34766"></path><path d="M957.9 652.257c-77.764 46.216-194.236 72.522-324.189 72.522-234.131 0-423.933-95.264-423.933-212.777 0-117.518 189.802-212.782 423.933-212.782 130.43 0 247.375 26.794 325.143 73.299-84.887-77.919-237.077-132.671-411.096-132.697C281.245 239.78 65.17 361.608 65.147 511.927c-0.022 150.317 216.011 272.217 482.525 272.251 173.326 0.029 325.127-54.546 410.228-131.921" fill="#13227a" p-id="34767"></path><path d="M619.947 610.095c-22.658 12.891-48.244 19.336-76.758 19.336-32.813 0-59.253-10.375-79.322-31.128-20.068-20.75-30.103-48.461-30.103-83.13 0-35.058 11.083-63.867 33.252-86.426 22.167-22.559 50.584-33.838 85.254-33.838 24.51 0 45.264 3.907 62.256 11.719v31.641c-18.164-11.426-39.797-17.139-64.893-17.139-24.709 0-45.07 8.448-61.084 25.342-16.017 16.896-24.023 39.162-24.023 66.797 0 28.418 7.372 50.537 22.119 66.357 14.745 15.82 34.667 23.73 59.766 23.73 17.285 0 31.98-3.318 44.092-9.961v-61.377h-49.219V506.09h78.662v104.005zM791.188 625.622H671.51V398.718h29.297v200.977h90.381v25.927z" p-id="34768" fill="#13227a"></path></svg>