<?xml version="1.0" standalone="no"?><!DOCTYPE svg PUBLIC "-//W3C//DTD SVG 1.1//EN" "http://www.w3.org/Graphics/SVG/1.1/DTD/svg11.dtd"><svg t="1764139718589" class="icon" viewBox="0 0 1024 1024" version="1.1" xmlns="http://www.w3.org/2000/svg" p-id="5250" xmlns:xlink="http://www.w3.org/1999/xlink" width="256" height="256"><path d="M934.07872 147.57248 269.81376 147.57248C255.97952 103.58272 214.88384 71.68 166.3232 71.68c-59.91168 0-108.46848 48.55808-108.46848 108.46848 0 59.904 48.55808 108.4736 108.46848 108.4736 48.5568 0 89.6512-31.90784 103.48672-75.89248l664.2688 0c17.99296 0 32.57856-14.5856 32.57856-32.57856C966.65856 162.15808 952.07168 147.57248 934.07872 147.57248zM166.32576 223.34336c-23.85536 0-43.18976-19.33952-43.18976-43.19232 0-23.85536 19.3344-43.18976 43.18976-43.18976 23.85536 0 43.19232 19.3344 43.19232 43.18976C209.51808 204.00256 190.18112 223.34336 166.32576 223.34336z" fill="#13227a" p-id="5251"></path><path d="M934.07872 465.34144 269.81376 465.34144c-13.83296-43.98976-54.92992-75.89248-103.48928-75.89248-59.91168 0-108.46848 48.55808-108.46848 108.46848 0 59.904 48.55808 108.4736 108.46848 108.4736 48.5568 0 89.6512-31.90784 103.48672-75.89248l664.2688 0c17.99296 0 32.57856-14.5856 32.57856-32.57856C966.65856 479.92704 952.07168 465.34144 934.07872 465.34144zM166.32576 541.11104c-23.85536 0-43.18976-19.33952-43.18976-43.19232 0-23.85536 19.3344-43.18976 43.18976-43.18976 23.85536 0 43.19232 19.3344 43.19232 43.18976C209.51808 521.77152 190.18112 541.11104 166.32576 541.11104z" fill="#13227a" p-id="5252"></path><path d="M934.07872 783.1104 269.81376 783.1104c-13.83296-43.98976-54.92992-75.89248-103.48928-75.89248-59.91168 0-108.46848 48.55808-108.46848 108.46848 0 59.904 48.55808 108.4736 108.46848 108.4736 48.5568 0 89.6512-31.90784 103.48672-75.89248l664.2688 0c17.99296 0 32.57856-14.5856 32.57856-32.57856C966.65856 797.696 952.07168 783.1104 934.07872 783.1104zM166.32576 858.88c-23.85536 0-43.18976-19.33952-43.18976-43.19232 0-23.85536 19.3344-43.18976 43.18976-43.18976 23.85536 0 43.19232 19.3344 43.19232 43.18976C209.51808 839.54048 190.18112 858.88 166.32576 858.88z" fill="#13227a" p-id="5253"></path><path d="M966.35648 336.25088c0 17.95968-14.55872 32.5184-32.5184 32.5184L600.36736 368.76928c-17.95968 0-32.5184-14.55872-32.5184-32.5184l0 0c0-17.95968 14.55872-32.5184 32.5184-32.5184L933.8368 303.73248C951.79648 303.73248 966.35648 318.2912 966.35648 336.25088L966.35648 336.25088z" fill="#13227a" p-id="5254"></path><path d="M966.35648 657.53088c0 17.95968-14.55872 32.5184-32.5184 32.5184L600.36736 690.04928c-17.95968 0-32.5184-14.55872-32.5184-32.5184l0 0c0-17.95968 14.55872-32.5184 32.5184-32.5184L933.8368 625.01248C951.79648 625.01248 966.35648 639.5712 966.35648 657.53088L966.35648 657.53088z" fill="#13227a" p-id="5255"></path></svg>