<?xml version="1.0" standalone="no"?><!DOCTYPE svg PUBLIC "-//W3C//DTD SVG 1.1//EN" "http://www.w3.org/Graphics/SVG/1.1/DTD/svg11.dtd"><svg t="1759130683683" class="icon" viewBox="0 0 1024 1024" version="1.1" xmlns="http://www.w3.org/2000/svg" p-id="16626" xmlns:xlink="http://www.w3.org/1999/xlink" width="256" height="256"><path d="M514.3 902.7L175.2 691.1l-90-375.7 338.4-177.9 529.9 291.7-439.2 473.5zM203.1 671l305.7 190.8 393.4-424.3-479-263.8L122 332l81.1 339z" fill="#13227a" p-id="16627"></path><path d="M446.7 522.5L96.1 337.8l14.9-28.2 302.8 159.5-6.4-313.2 31.9-0.7z" fill="#13227a" p-id="16628"></path><path d="M495.9 885.3L418 481.8l508.1-55.3 3.5 31.7-473.8 51.5 71.4 369.5z" fill="#13227a" p-id="16629"></path><path d="M179.497 668.443l241.121-185.318 19.44 25.293-241.121 185.319z" fill="#13227a" p-id="16630"></path><path d="M430.887292 541.899622a46.400464 46.400464 0 1 0 5.733259-92.623658 46.400464 46.400464 0 1 0-5.733259 92.623658Z" fill="#13227a" p-id="16631"></path><path d="M433.8 553.4c-1.2 0-2.4 0-3.6-0.1-31.8-2-56.1-29.5-54.1-61.3 2-31.8 29.4-56.1 61.3-54.1 31.8 2 56.1 29.5 54.1 61.3-2 30.5-27.5 54.2-57.7 54.2z m-2.2-22.9c19.3 1.2 35.9-13.5 37.1-32.8 1.2-19.3-13.5-35.9-32.8-37.1-19.3-1.2-35.9 13.5-37.1 32.8-1.2 19.3 13.5 35.9 32.8 37.1z" fill="#13227a" p-id="16632"></path><path d="M911.318926 482.502375a46.400464 46.400464 0 1 0 5.733259-92.623658 46.400464 46.400464 0 1 0-5.733259 92.623658Z" fill="#13227a" p-id="16633"></path><path d="M417.666813 201.824995a46.400464 46.400464 0 1 0 5.733259-92.623658 46.400464 46.400464 0 1 0-5.733259 92.623658Z" fill="#13227a" p-id="16634"></path><path d="M509.307473 915.976134a46.400464 46.400464 0 1 0 5.73326-92.623658 46.400464 46.400464 0 1 0-5.73326 92.623658Z" fill="#13227a" p-id="16635"></path><path d="M186.254148 727.306729a46.400464 46.400464 0 1 0 5.73326-92.623658 46.400464 46.400464 0 1 0-5.73326 92.623658Z" fill="#13227a" p-id="16636"></path><path d="M77.092978 366.347541a46.4 46.4 0 1 0 65.618364-65.620654 46.4 46.4 0 1 0-65.618364 65.620654Z" fill="#13227a" p-id="16637"></path></svg>