<svg id="图层_1" data-name="图层 1" xmlns="http://www.w3.org/2000/svg" viewBox="0 0 34.12 34.03"><defs><style>.cls-1{fill:none;stroke:#0072c6;stroke-miterlimit:10;stroke-width:1.4px;}.cls-2{fill:#0072c6;}</style></defs><title>select_point</title><path class="cls-1" d="M25.1,15.9h14c.7,0,1.3.3,1.3,1.1V40a.27.27,0,0,1-.3.3H19.4c-.7,0-1.3-.3-1.3-1.4" transform="translate(-6.98 -7)"/><path class="cls-1" d="M18.1,24.4V38.6c-.3.5.2.3,0,1.1L8.4,30.6c-.4-.3-.7-.6-.7-.7V8.9a.61.61,0,0,1,.6-.8" transform="translate(-6.98 -7)"/><path class="cls-1" d="M7.7,9.2c0-.4,0-1.5.6-1.4l22.8-.1a4,4,0,0,1,.7.7L40,16.1c-.4-.5-.7-.7-1-.3" transform="translate(-6.98 -7)"/><polygon class="cls-2" points="16.02 16 21.62 28.6 23.82 23.8 28.62 21.6 16.02 16"/><line class="cls-1" x1="19.72" y1="19.8" x2="30.92" y2="31"/><circle class="cls-2" cx="12.92" cy="12.2" r="4.3"/><line class="cls-1" x1="1.22" y1="1.4" x2="8.82" y2="9.1"/></svg>