<?xml version="1.0" standalone="no"?><!DOCTYPE svg PUBLIC "-//W3C//DTD SVG 1.1//EN" "http://www.w3.org/Graphics/SVG/1.1/DTD/svg11.dtd"><svg t="1758003684743" class="icon" viewBox="0 0 1024 1024" version="1.1" xmlns="http://www.w3.org/2000/svg" p-id="5957" xmlns:xlink="http://www.w3.org/1999/xlink" width="256" height="256"><path d="M788.992 173.056H231.936c-38.4 0-69.632 31.232-69.632 69.632v557.056c0 38.4 31.232 69.632 69.632 69.632h557.056c38.4 0 69.632-31.232 69.632-69.632V242.176c0.512-38.4-30.72-69.12-69.632-69.12z m23.552 626.176c0 12.8-10.24 23.04-23.04 23.04H231.936c-12.8 0-23.04-10.24-23.04-23.04V242.176c0-12.8 10.24-23.04 23.04-23.04h557.056c12.8 0 23.04 10.24 23.04 23.04v557.056zM673.28 265.728h-46.592V358.4h-92.672V265.728h-46.592V358.4H394.752V265.728H348.16V358.4H255.488v46.592H348.16v92.672H255.488v46.592H348.16v92.672H255.488v46.592H348.16v92.672h46.592v-92.672h92.672v92.672h46.592v-92.672h92.672v92.672h46.592v-92.672h92.672v-46.592h-92.672v-92.672h92.672v-46.592h-92.672V404.992h92.672V358.4h-92.672V265.728zM394.752 404.992h92.672v92.672H394.752V404.992z m0 231.936v-92.672h92.672v92.672H394.752z m231.936 0h-92.672v-92.672h92.672v92.672z m0-139.264h-92.672V404.992h92.672v92.672z" fill="#13227a" p-id="5958"></path></svg>